# xmcd
#
# Track frame offsets: 
#        150
#        14522
#        31285
#        46402
#        60252
#        75480
#        89405
#        92035
#        106945
#        121460
#        136010
#        162945
#        167647
#        184700
#
# Disc length: 2671 seconds
#
# Revision: 0
# Processed by: cddbd v1.5.2PL0 Copyright (c) Steve Scherf et al.
# Submitted via: ExactAudioCopy v0.99pb5
#
DISCID=a50a6d0e
DTITLE=Buck Page - Right Place to Start
DYEAR=2005
DGENRE=Country
TTITLE0=You Pop My Corn
TTITLE1=Lay It On the Line
TTITLE2=Keeper of My Heart
TTITLE3=Wind Lullaby
TTITLE4=Tractor Song
TTITLE5=Right Place to Start
TTITLE6=Buck's Memories
TTITLE7=Colorado Memories
TTITLE8=Little Cowboy
TTITLE9=Montana Sky
TTITLE10=Ghost Riders in the Sky
TTITLE11=Journeys
TTITLE12=Quiet Times
TTITLE13=Ridin' on the Last trail Home
EXTD=
EXTT0=
EXTT1=
EXTT2=
EXTT3=
EXTT4=
EXTT5=
EXTT6=
EXTT7=
EXTT8=
EXTT9=
EXTT10=
EXTT11=
EXTT12=
EXTT13=
PLAYORDER=
